<svg xmlns="http://www.w3.org/2000/svg" viewBox="0 0 1200 700" role="img" aria-label="Dollar sign icon">
  <defs>
    <linearGradient id="bg" x1="0" y1="0" x2="1" y2="1">
      <stop offset="0%" stop-color="#eff7ea"/>
      <stop offset="100%" stop-color="#d8ebcc"/>
    </linearGradient>
    <radialGradient id="coin" cx="50%" cy="40%" r="60%">
      <stop offset="0%" stop-color="#c9ecb8"/>
      <stop offset="100%" stop-color="#6b8f5e"/>
    </radialGradient>
  </defs>

  <rect width="1200" height="700" fill="url(#bg)"/>
  <circle cx="600" cy="350" r="230" fill="url(#coin)"/>
  <circle cx="600" cy="350" r="230" fill="none" stroke="#4f7443" stroke-width="20"/>
  <ellipse cx="600" cy="365" rx="250" ry="55" fill="#4f7443" opacity="0.2"/>

  <g fill="none" stroke="#ffffff" stroke-linecap="round" stroke-linejoin="round">
    <path d="M600 220 L600 480" stroke-width="28"/>
    <path d="M690 270 C660 238, 605 232, 560 248 C520 263, 512 306, 552 324 C575 334, 615 338, 650 350 C698 366, 706 418, 664 447 C620 478, 553 470, 510 438" stroke-width="28"/>
  </g>

  <circle cx="515" cy="245" r="14" fill="#ffffff" opacity="0.7"/>
  <circle cx="548" cy="220" r="10" fill="#ffffff" opacity="0.55"/>
</svg>
